<svg xmlns="http://www.w3.org/2000/svg" xmlns:xlink="http://www.w3.org/1999/xlink" width="1000" zoomAndPan="magnify" viewBox="0 0 750 225" height="300" preserveAspectRatio="xMidYMid meet" version="1.0"><defs><g/><clipPath id="eca474d70b"><path d="M 147 74 L 176 74 L 176 103 L 147 103 Z M 147 74 " clip-rule="nonzero"/></clipPath><clipPath id="910dde4f2b"><path d="M 143.449219 94.578125 L 165.199219 70.273438 L 186.519531 89.351562 L 164.769531 113.65625 Z M 143.449219 94.578125 " clip-rule="nonzero"/></clipPath><clipPath id="634ed4487d"><path d="M 147.78125 96.726562 C 149.265625 101.59375 153.660156 103.03125 156.894531 102.789062 L 175.785156 101.347656 L 174.96875 82.660156 C 174.617188 79.425781 173.261719 77.097656 170.824219 75.535156 C 167.453125 73.378906 163 73.761719 159.992188 76.464844 C 158.148438 78.125 157.082031 80.367188 156.992188 82.785156 C 156.96875 83.433594 157.015625 84.078125 157.132812 84.703125 C 156.394531 84.667969 155.640625 84.71875 154.886719 84.867188 C 152.25 85.375 149.953125 86.972656 148.582031 89.257812 C 147.289062 91.421875 146.996094 94.144531 147.78125 96.726562 Z M 147.78125 96.726562 " clip-rule="nonzero"/></clipPath><clipPath id="22a17a2cb9"><path d="M 102 79 L 140 79 L 140 104 L 102 104 Z M 102 79 " clip-rule="nonzero"/></clipPath><clipPath id="0f4de7c673"><path d="M 107.832031 71.375 L 140.449219 80.058594 L 131.765625 112.671875 L 99.152344 103.988281 Z M 107.832031 71.375 " clip-rule="nonzero"/></clipPath><clipPath id="72c2a18cec"><path d="M 107.832031 71.375 L 140.449219 80.058594 L 131.765625 112.671875 L 99.152344 103.988281 Z M 107.832031 71.375 " clip-rule="nonzero"/></clipPath></defs><path fill="#e99318" d="M 221.023438 11.675781 L 74.386719 30.125 C 78.546875 34.425781 81.460938 39.929688 82.246094 46.21875 L 84.652344 63.746094 L 199.84375 58.519531 C 201.695312 58.378906 203.453125 59.214844 204.652344 60.601562 C 205.855469 62.035156 206.363281 63.882812 205.996094 65.6875 L 197.949219 107.074219 C 196.46875 114.796875 188.050781 120.347656 177.972656 120.347656 L 92.328125 120.347656 L 93.207031 126.636719 C 93.667969 130.242188 96.90625 133.019531 100.699219 133.019531 L 184.074219 133.019531 C 187.359375 133.019531 190.085938 135.699219 190.085938 139.03125 C 190.085938 142.3125 187.359375 145.042969 184.074219 145.042969 L 100.699219 145.042969 C 90.941406 145.042969 82.570312 137.828125 81.277344 128.253906 L 70.316406 47.789062 C 69.253906 39.375 61.851562 33.039062 53.160156 33.039062 L 51.355469 33.039062 L 36.1875 34.933594 C 28.1875 35.953125 22.5 43.210938 23.472656 51.214844 L 39.519531 173.34375 C 40.71875 182.453125 48.304688 189.390625 57.507812 189.804688 L 201.230469 195.957031 C 211.496094 196.417969 220.332031 188.742188 221.347656 178.566406 L 236.332031 26.613281 C 237.210938 17.871094 229.765625 10.566406 221.023438 11.675781 Z M 111.242188 173.664062 C 105.832031 173.664062 101.4375 169.273438 101.4375 163.816406 C 101.4375 158.40625 105.832031 153.964844 111.242188 153.964844 C 116.699219 153.964844 121.089844 158.40625 121.089844 163.816406 C 121.089844 169.273438 116.699219 173.664062 111.242188 173.664062 Z M 164.558594 173.664062 C 159.105469 173.664062 154.710938 169.273438 154.710938 163.816406 C 154.710938 158.40625 159.105469 153.964844 164.558594 153.964844 C 169.972656 153.964844 174.363281 158.40625 174.363281 163.816406 C 174.363281 169.273438 169.972656 173.664062 164.558594 173.664062 Z M 164.558594 173.664062 " fill-opacity="1" fill-rule="nonzero"/><path fill="#e99318" d="M 177.972656 108.371094 C 182.871094 108.371094 185.925781 106.058594 186.15625 104.808594 L 192.769531 70.914062 L 86.269531 75.722656 L 90.710938 108.371094 Z M 177.972656 108.371094 " fill-opacity="1" fill-rule="nonzero"/><g clip-path="url(#eca474d70b)"><g clip-path="url(#910dde4f2b)"><g clip-path="url(#634ed4487d)"><path fill="#3a1a60" d="M 143.53125 94.652344 L 165.28125 70.347656 L 186.519531 89.351562 L 164.769531 113.65625 Z M 143.53125 94.652344 " fill-opacity="1" fill-rule="nonzero"/></g></g></g><g clip-path="url(#22a17a2cb9)"><g clip-path="url(#0f4de7c673)"><g clip-path="url(#72c2a18cec)"><path fill="#3a1a60" d="M 102.363281 93.5 C 103.554688 87.5 106.878906 83.421875 110.054688 81.378906 C 113.226562 79.339844 116.878906 78.933594 122.039062 79.351562 C 127.195312 79.773438 133.792969 83.246094 139.460938 79.847656 C 132.582031 108.523438 110.796875 107.105469 102.808594 96.34375 C 107.472656 93.03125 112.230469 91.0625 118.167969 90.53125 C 122.429688 90.148438 126.132812 90.378906 130.855469 87.171875 C 124.613281 89.359375 120.285156 88.488281 116.878906 88.644531 C 111.8125 88.871094 107.59375 89.871094 102.363281 93.5 Z M 102.363281 93.5 " fill-opacity="1" fill-rule="evenodd"/></g></g></g><g fill="#ffffff" fill-opacity="1"><g transform="translate(281.072273, 109.309226)"><g><path d="M 9.40625 0 L 9.40625 -82.359375 L 27.296875 -82.359375 L 27.296875 0 Z M 9.40625 0 "/></g></g></g><g fill="#ffffff" fill-opacity="1"><g transform="translate(317.772307, 109.309226)"><g><path d="M 80.484375 -65.0625 C 84.867188 -65.0625 88.75 -63.984375 92.125 -61.828125 C 95.5 -59.671875 98.144531 -56.707031 100.0625 -52.9375 C 101.988281 -49.175781 102.953125 -44.828125 102.953125 -39.890625 L 102.953125 0 L 85.765625 0 L 85.765625 -37.0625 C 85.765625 -45.6875 82.550781 -50 76.125 -50 C 72.351562 -50 69.390625 -48.625 67.234375 -45.875 C 65.078125 -43.132812 64 -39.296875 64 -34.359375 L 64 0 L 47.1875 0 L 47.1875 -37.0625 C 47.1875 -45.6875 44.085938 -50 37.890625 -50 C 33.960938 -50 30.898438 -48.625 28.703125 -45.875 C 26.503906 -43.132812 25.40625 -39.296875 25.40625 -34.359375 L 25.40625 0 L 8.234375 0 L 8.234375 -63.53125 L 20.234375 -63.53125 L 23.40625 -55.65625 C 25.6875 -58.476562 28.492188 -60.75 31.828125 -62.46875 C 35.160156 -64.195312 38.707031 -65.0625 42.46875 -65.0625 C 46.46875 -65.0625 50.078125 -64.160156 53.296875 -62.359375 C 56.515625 -60.554688 59.023438 -58.046875 60.828125 -54.828125 C 63.023438 -57.960938 65.847656 -60.453125 69.296875 -62.296875 C 72.742188 -64.140625 76.472656 -65.0625 80.484375 -65.0625 Z M 80.484375 -65.0625 "/></g></g></g><g fill="#ffffff" fill-opacity="1"><g transform="translate(428.107711, 109.309226)"><g><path d="M 42.9375 -65.296875 C 49.289062 -65.296875 54.976562 -63.84375 60 -60.9375 C 65.019531 -58.039062 68.976562 -54.0625 71.875 -49 C 74.78125 -43.945312 76.234375 -38.203125 76.234375 -31.765625 C 76.234375 -25.335938 74.78125 -19.59375 71.875 -14.53125 C 68.976562 -9.46875 65.019531 -5.46875 60 -2.53125 C 54.976562 0.40625 49.289062 1.875 42.9375 1.875 C 39.644531 1.875 36.507812 1.40625 33.53125 0.46875 C 30.550781 -0.46875 27.84375 -1.757812 25.40625 -3.40625 L 25.40625 22.9375 L 8.234375 22.9375 L 8.234375 -63.53125 L 19.65625 -63.53125 L 22.59375 -57.765625 C 25.257812 -60.117188 28.316406 -61.960938 31.765625 -63.296875 C 35.210938 -64.628906 38.9375 -65.296875 42.9375 -65.296875 Z M 41.53125 -14.359375 C 44.820312 -14.359375 47.78125 -15.117188 50.40625 -16.640625 C 53.039062 -18.171875 55.101562 -20.25 56.59375 -22.875 C 58.082031 -25.507812 58.828125 -28.472656 58.828125 -31.765625 C 58.828125 -35.054688 58.082031 -38.015625 56.59375 -40.640625 C 55.101562 -43.273438 53.039062 -45.359375 50.40625 -46.890625 C 47.78125 -48.421875 44.820312 -49.1875 41.53125 -49.1875 C 38.15625 -49.1875 35.171875 -48.421875 32.578125 -46.890625 C 29.992188 -45.359375 27.957031 -43.273438 26.46875 -40.640625 C 24.976562 -38.015625 24.234375 -35.054688 24.234375 -31.765625 C 24.234375 -28.472656 24.976562 -25.507812 26.46875 -22.875 C 27.957031 -20.25 29.992188 -18.171875 32.578125 -16.640625 C 35.171875 -15.117188 38.15625 -14.359375 41.53125 -14.359375 Z M 41.53125 -14.359375 "/></g></g></g><g fill="#ffffff" fill-opacity="1"><g transform="translate(508.330248, 109.309226)"><g><path d="M 60.125 -63.65625 L 72.953125 -63.65625 L 72.953125 -0.125 L 59.421875 -0.125 L 58 -5.765625 C 55.257812 -3.410156 52.144531 -1.566406 48.65625 -0.234375 C 45.164062 1.097656 41.421875 1.765625 37.421875 1.765625 C 31.066406 1.765625 25.378906 0.296875 20.359375 -2.640625 C 15.335938 -5.585938 11.375 -9.585938 8.46875 -14.640625 C 5.570312 -19.703125 4.125 -25.453125 4.125 -31.890625 C 4.125 -38.242188 5.570312 -43.945312 8.46875 -49 C 11.375 -54.0625 15.335938 -58.039062 20.359375 -60.9375 C 25.378906 -63.84375 31.066406 -65.296875 37.421875 -65.296875 C 41.492188 -65.296875 45.296875 -64.609375 48.828125 -63.234375 C 52.359375 -61.867188 55.492188 -59.96875 58.234375 -57.53125 Z M 38.828125 -14.46875 C 42.117188 -14.46875 45.078125 -15.210938 47.703125 -16.703125 C 50.335938 -18.191406 52.398438 -20.25 53.890625 -22.875 C 55.378906 -25.507812 56.125 -28.515625 56.125 -31.890625 C 56.125 -35.179688 55.378906 -38.140625 53.890625 -40.765625 C 52.398438 -43.390625 50.335938 -45.46875 47.703125 -47 C 45.078125 -48.53125 42.117188 -49.296875 38.828125 -49.296875 C 35.453125 -49.296875 32.46875 -48.53125 29.875 -47 C 27.289062 -45.46875 25.253906 -43.390625 23.765625 -40.765625 C 22.273438 -38.140625 21.53125 -35.179688 21.53125 -31.890625 C 21.53125 -28.515625 22.273438 -25.53125 23.765625 -22.9375 C 25.253906 -20.351562 27.289062 -18.296875 29.875 -16.765625 C 32.46875 -15.234375 35.453125 -14.46875 38.828125 -14.46875 Z M 38.828125 -14.46875 "/></g></g></g><g fill="#ffffff" fill-opacity="1"><g transform="translate(589.493836, 109.309226)"><g><path d="M 37.765625 1.765625 C 31.410156 1.765625 25.679688 0.273438 20.578125 -2.703125 C 15.484375 -5.679688 11.46875 -9.71875 8.53125 -14.8125 C 5.59375 -19.914062 4.125 -25.644531 4.125 -32 C 4.125 -38.351562 5.59375 -44.039062 8.53125 -49.0625 C 11.46875 -54.082031 15.484375 -58.039062 20.578125 -60.9375 C 25.679688 -63.84375 31.453125 -65.296875 37.890625 -65.296875 C 43.378906 -65.296875 48.378906 -64.21875 52.890625 -62.0625 C 57.398438 -59.90625 61.164062 -56.863281 64.1875 -52.9375 C 67.207031 -49.019531 69.222656 -44.472656 70.234375 -39.296875 L 53.1875 -39.296875 C 51.769531 -42.429688 49.707031 -44.863281 47 -46.59375 C 44.289062 -48.320312 41.210938 -49.1875 37.765625 -49.1875 C 34.703125 -49.1875 31.9375 -48.421875 29.46875 -46.890625 C 27 -45.359375 25.054688 -43.296875 23.640625 -40.703125 C 22.234375 -38.117188 21.53125 -35.179688 21.53125 -31.890625 C 21.53125 -28.585938 22.234375 -25.625 23.640625 -23 C 25.054688 -20.375 27 -18.273438 29.46875 -16.703125 C 31.9375 -15.140625 34.703125 -14.359375 37.765625 -14.359375 C 41.296875 -14.359375 44.375 -15.28125 47 -17.125 C 49.625 -18.96875 51.6875 -21.613281 53.1875 -25.0625 L 70.46875 -25.0625 C 69.457031 -19.726562 67.421875 -15.039062 64.359375 -11 C 61.296875 -6.957031 57.488281 -3.816406 52.9375 -1.578125 C 48.394531 0.648438 43.335938 1.765625 37.765625 1.765625 Z M 37.765625 1.765625 "/></g></g></g><g fill="#ffffff" fill-opacity="1"><g transform="translate(663.011583, 109.309226)"><g><path d="M 39.296875 -15.296875 L 47.0625 -15.296875 L 47.0625 0 L 34.9375 0 C 27.957031 0 22.445312 -2.019531 18.40625 -6.0625 C 14.375 -10.101562 12.359375 -15.648438 12.359375 -22.703125 L 12.359375 -49.765625 L 0.828125 -49.765625 L 0.828125 -53.421875 L 26 -80.125 L 29.171875 -80.125 L 29.171875 -63.53125 L 46.703125 -63.53125 L 46.703125 -49.765625 L 29.53125 -49.765625 L 29.53125 -24.9375 C 29.53125 -21.882812 30.375 -19.515625 32.0625 -17.828125 C 33.75 -16.140625 36.160156 -15.296875 39.296875 -15.296875 Z M 39.296875 -15.296875 "/></g></g></g><g fill="#e99318" fill-opacity="1"><g transform="translate(281.072273, 190.315272)"><g><path d="M 46.875 -37.890625 C 49.4375 -37.890625 51.695312 -37.257812 53.65625 -36 C 55.625 -34.75 57.164062 -33.023438 58.28125 -30.828125 C 59.40625 -28.640625 59.96875 -26.109375 59.96875 -23.234375 L 59.96875 0 L 49.953125 0 L 49.953125 -21.59375 C 49.953125 -26.613281 48.082031 -29.125 44.34375 -29.125 C 42.144531 -29.125 40.414062 -28.320312 39.15625 -26.71875 C 37.90625 -25.125 37.28125 -22.890625 37.28125 -20.015625 L 37.28125 0 L 27.484375 0 L 27.484375 -21.59375 C 27.484375 -26.613281 25.675781 -29.125 22.0625 -29.125 C 19.78125 -29.125 18 -28.320312 16.71875 -26.71875 C 15.4375 -25.125 14.796875 -22.890625 14.796875 -20.015625 L 14.796875 0 L 4.796875 0 L 4.796875 -37 L 11.78125 -37 L 13.640625 -32.421875 C 14.960938 -34.054688 16.59375 -35.375 18.53125 -36.375 C 20.476562 -37.382812 22.546875 -37.890625 24.734375 -37.890625 C 27.066406 -37.890625 29.171875 -37.363281 31.046875 -36.3125 C 32.921875 -35.269531 34.382812 -33.8125 35.4375 -31.9375 C 36.707031 -33.757812 38.347656 -35.207031 40.359375 -36.28125 C 42.367188 -37.351562 44.539062 -37.890625 46.875 -37.890625 Z M 46.875 -37.890625 "/></g></g></g><g fill="#e99318" fill-opacity="1"><g transform="translate(345.350193, 190.315272)"><g><path d="M 35.015625 -37.078125 L 42.484375 -37.078125 L 42.484375 -0.0625 L 34.609375 -0.0625 L 33.78125 -3.359375 C 32.1875 -1.984375 30.367188 -0.90625 28.328125 -0.125 C 26.296875 0.644531 24.117188 1.03125 21.796875 1.03125 C 18.085938 1.03125 14.769531 0.175781 11.84375 -1.53125 C 8.925781 -3.25 6.625 -5.582031 4.9375 -8.53125 C 3.25 -11.476562 2.40625 -14.828125 2.40625 -18.578125 C 2.40625 -22.273438 3.25 -25.597656 4.9375 -28.546875 C 6.625 -31.492188 8.925781 -33.8125 11.84375 -35.5 C 14.769531 -37.1875 18.085938 -38.03125 21.796875 -38.03125 C 24.171875 -38.03125 26.382812 -37.628906 28.4375 -36.828125 C 30.5 -36.035156 32.328125 -34.929688 33.921875 -33.515625 Z M 22.609375 -8.421875 C 24.535156 -8.421875 26.257812 -8.851562 27.78125 -9.71875 C 29.3125 -10.59375 30.507812 -11.796875 31.375 -13.328125 C 32.25 -14.859375 32.6875 -16.609375 32.6875 -18.578125 C 32.6875 -20.492188 32.25 -22.21875 31.375 -23.75 C 30.507812 -25.28125 29.3125 -26.488281 27.78125 -27.375 C 26.257812 -28.269531 24.535156 -28.71875 22.609375 -28.71875 C 20.648438 -28.71875 18.914062 -28.269531 17.40625 -27.375 C 15.894531 -26.488281 14.707031 -25.28125 13.84375 -23.75 C 12.976562 -22.21875 12.546875 -20.492188 12.546875 -18.578125 C 12.546875 -16.609375 12.976562 -14.867188 13.84375 -13.359375 C 14.707031 -11.859375 15.894531 -10.660156 17.40625 -9.765625 C 18.914062 -8.867188 20.648438 -8.421875 22.609375 -8.421875 Z M 22.609375 -8.421875 "/></g></g></g><g fill="#e99318" fill-opacity="1"><g transform="translate(392.633547, 190.315272)"><g><path d="M 23.71875 -37.21875 L 27 -37.21875 L 27 -27.75 L 22.6875 -27.75 C 19.851562 -27.75 17.828125 -27.085938 16.609375 -25.765625 C 15.398438 -24.441406 14.796875 -22.269531 14.796875 -19.25 L 14.796875 0 L 4.796875 0 L 4.796875 -37 L 11.234375 -37 L 13.015625 -32.484375 C 15.535156 -35.640625 19.101562 -37.21875 23.71875 -37.21875 Z M 23.71875 -37.21875 "/></g></g></g><g fill="#e99318" fill-opacity="1"><g transform="translate(420.523854, 190.315272)"><g><path d="M 38.78125 0 L 26.65625 0 L 14.796875 -17.6875 L 14.796875 0 L 4.796875 0 L 4.796875 -50.375 L 14.796875 -50.375 L 14.796875 -20.5625 L 25.90625 -37 L 37.421875 -37 L 24.953125 -19.390625 Z M 38.78125 0 "/></g></g></g><g fill="#e99318" fill-opacity="1"><g transform="translate(458.967269, 190.315272)"><g><path d="M 40.703125 -18.640625 C 40.703125 -17.679688 40.632812 -16.695312 40.5 -15.6875 L 12.546875 -15.6875 C 12.953125 -13.175781 13.953125 -11.242188 15.546875 -9.890625 C 17.148438 -8.546875 19.164062 -7.875 21.59375 -7.875 C 23.320312 -7.875 24.867188 -8.25 26.234375 -9 C 27.609375 -9.757812 28.664062 -10.800781 29.40625 -12.125 L 39.953125 -12.125 C 38.578125 -8.101562 36.242188 -4.90625 32.953125 -2.53125 C 29.671875 -0.15625 25.882812 1.03125 21.59375 1.03125 C 17.9375 1.03125 14.65625 0.175781 11.75 -1.53125 C 8.851562 -3.25 6.570312 -5.582031 4.90625 -8.53125 C 3.238281 -11.476562 2.40625 -14.800781 2.40625 -18.5 C 2.40625 -22.195312 3.238281 -25.519531 4.90625 -28.46875 C 6.570312 -31.414062 8.851562 -33.742188 11.75 -35.453125 C 14.65625 -37.171875 17.9375 -38.03125 21.59375 -38.03125 C 25.382812 -38.03125 28.71875 -37.148438 31.59375 -35.390625 C 34.46875 -33.640625 36.703125 -31.300781 38.296875 -28.375 C 39.898438 -25.445312 40.703125 -22.203125 40.703125 -18.640625 Z M 21.59375 -29.53125 C 19.351562 -29.53125 17.46875 -28.914062 15.9375 -27.6875 C 14.40625 -26.457031 13.363281 -24.742188 12.8125 -22.546875 L 30.703125 -22.546875 C 29.242188 -27.203125 26.207031 -29.53125 21.59375 -29.53125 Z M 21.59375 -29.53125 "/></g></g></g><g fill="#e99318" fill-opacity="1"><g transform="translate(502.001947, 190.315272)"><g><path d="M 22.890625 -8.90625 L 27.40625 -8.90625 L 27.40625 0 L 20.359375 0 C 16.285156 0 13.070312 -1.175781 10.71875 -3.53125 C 8.375 -5.882812 7.203125 -9.113281 7.203125 -13.21875 L 7.203125 -28.984375 L 0.484375 -28.984375 L 0.484375 -31.109375 L 15.140625 -46.671875 L 17 -46.671875 L 17 -37 L 27.203125 -37 L 27.203125 -28.984375 L 17.203125 -28.984375 L 17.203125 -14.53125 C 17.203125 -12.75 17.691406 -11.363281 18.671875 -10.375 C 19.648438 -9.394531 21.054688 -8.90625 22.890625 -8.90625 Z M 22.890625 -8.90625 "/></g></g></g><g fill="#e99318" fill-opacity="1"><g transform="translate(531.468396, 190.315272)"><g><path d="M 4.109375 0 L 4.109375 -10.6875 L 14.734375 -10.6875 L 14.734375 0 Z M 4.109375 0 "/></g></g></g><g fill="#e99318" fill-opacity="1"><g transform="translate(550.244665, 190.315272)"><g><path d="M 25.015625 -38.03125 C 28.710938 -38.03125 32.023438 -37.1875 34.953125 -35.5 C 37.878906 -33.8125 40.1875 -31.492188 41.875 -28.546875 C 43.5625 -25.597656 44.40625 -22.25 44.40625 -18.5 C 44.40625 -14.757812 43.5625 -11.414062 41.875 -8.46875 C 40.1875 -5.519531 37.878906 -3.1875 34.953125 -1.46875 C 32.023438 0.238281 28.710938 1.09375 25.015625 1.09375 C 23.097656 1.09375 21.269531 0.816406 19.53125 0.265625 C 17.789062 -0.273438 16.210938 -1.023438 14.796875 -1.984375 L 14.796875 13.359375 L 4.796875 13.359375 L 4.796875 -37 L 11.4375 -37 L 13.15625 -33.65625 C 14.707031 -35.019531 16.488281 -36.085938 18.5 -36.859375 C 20.507812 -37.640625 22.679688 -38.03125 25.015625 -38.03125 Z M 24.1875 -8.359375 C 26.101562 -8.359375 27.828125 -8.800781 29.359375 -9.6875 C 30.890625 -10.582031 32.085938 -11.796875 32.953125 -13.328125 C 33.828125 -14.859375 34.265625 -16.582031 34.265625 -18.5 C 34.265625 -20.414062 33.828125 -22.140625 32.953125 -23.671875 C 32.085938 -25.203125 30.890625 -26.410156 29.359375 -27.296875 C 27.828125 -28.191406 26.101562 -28.640625 24.1875 -28.640625 C 22.226562 -28.640625 20.492188 -28.191406 18.984375 -27.296875 C 17.472656 -26.410156 16.285156 -25.203125 15.421875 -23.671875 C 14.554688 -22.140625 14.125 -20.414062 14.125 -18.5 C 14.125 -16.582031 14.554688 -14.859375 15.421875 -13.328125 C 16.285156 -11.796875 17.472656 -10.582031 18.984375 -9.6875 C 20.492188 -8.800781 22.226562 -8.359375 24.1875 -8.359375 Z M 24.1875 -8.359375 "/></g></g></g><g fill="#e99318" fill-opacity="1"><g transform="translate(596.979778, 190.315272)"><g><path d="M 4.796875 0 L 4.796875 -50.375 L 14.796875 -50.375 L 14.796875 0 Z M 4.796875 0 "/></g></g></g></svg>